<svg xmlns="http://www.w3.org/2000/svg" width="920" height="330" viewBox="0 0 920 330" role="img" aria-label="Ringtail ranked file suite overview">
<rect width="920" height="330" fill="#0f172a" rx="18" />
<text x="28" y="38" fill="#f8fafc" font-size="22" font-family="Arial, sans-serif" font-weight="700">pitch-ranked-file-suite</text>
<text x="28" y="64" fill="#cbd5e1" font-size="14" font-family="Arial, sans-serif">pass 2/3 | avg speedup 5543.26x</text>
<text x="28" y="108" fill="#e2e8f0" font-size="14" font-family="Arial, sans-serif" font-weight="600">#1 slow_math::slow_sum</text>
<text x="28" y="126" fill="#94a3b8" font-size="11" font-family="Arial, sans-serif">ranked 1.056584 ms</text>
<rect x="260" y="94" width="520.0" height="14" fill="#ef4444" rx="6" />
<rect x="260" y="116" width="16.0" height="14" fill="#22c55e" rx="6" />
<text x="796.0" y="106" fill="#fecaca" font-size="12" font-family="Arial, sans-serif">1.0980835068 ms</text>
<text x="292.0" y="128" fill="#bbf7d0" font-size="12" font-family="Arial, sans-serif">0.0001015627 ms</text>
<text x="28" y="168" fill="#e2e8f0" font-size="14" font-family="Arial, sans-serif" font-weight="600">#2 duplicate_scan::has_duplicates</text>
<text x="28" y="186" fill="#94a3b8" font-size="11" font-family="Arial, sans-serif">ranked 0.407458 ms</text>
<rect x="260" y="154" width="200.5" height="14" fill="#ef4444" rx="6" />
<rect x="260" y="176" width="16.0" height="14" fill="#22c55e" rx="6" />
<text x="476.5" y="166" fill="#fecaca" font-size="12" font-family="Arial, sans-serif">0.4234999651 ms</text>
<text x="292.0" y="188" fill="#bbf7d0" font-size="12" font-family="Arial, sans-serif">0.0015420374 ms</text>
<text x="28" y="228" fill="#e2e8f0" font-size="14" font-family="Arial, sans-serif" font-weight="600">#3 digit_math::add_digits</text>
<text x="28" y="246" fill="#94a3b8" font-size="11" font-family="Arial, sans-serif">ranked 0.001041 ms</text>
<rect x="260" y="214" width="16.0" height="14" fill="#ef4444" rx="6" />
<rect x="260" y="236" width="16.0" height="14" fill="#22c55e" rx="6" />
<text x="292.0" y="226" fill="#fecaca" font-size="12" font-family="Arial, sans-serif">0.0010420335 ms</text>
<text x="292.0" y="248" fill="#bbf7d0" font-size="12" font-family="Arial, sans-serif">0.0010420335 ms</text>
</svg>