<svg xmlns="http://www.w3.org/2000/svg" width="920" height="330" viewBox="0 0 920 330" role="img" aria-label="Ringtail ranked file suite overview">
<rect width="920" height="330" fill="#0f172a" rx="18" />
<text x="28" y="38" fill="#f8fafc" font-size="22" font-family="Arial, sans-serif" font-weight="700">pitch-ranked-file-suite</text>
<text x="28" y="64" fill="#cbd5e1" font-size="14" font-family="Arial, sans-serif">pass 2/3 | avg speedup 1.31x</text>
<text x="28" y="108" fill="#e2e8f0" font-size="14" font-family="Arial, sans-serif" font-weight="600">#1 digit_math::add_digits</text>
<text x="28" y="126" fill="#94a3b8" font-size="11" font-family="Arial, sans-serif">ranked 0.000125 ms</text>
<rect x="260" y="94" width="16.0" height="14" fill="#ef4444" rx="6" />
<rect x="260" y="116" width="16.0" height="14" fill="#22c55e" rx="6" />
<text x="292.0" y="106" fill="#fecaca" font-size="12" font-family="Arial, sans-serif">0.0001250301 ms</text>
<text x="292.0" y="128" fill="#bbf7d0" font-size="12" font-family="Arial, sans-serif">0.0000822899 ms</text>
<text x="28" y="168" fill="#e2e8f0" font-size="14" font-family="Arial, sans-serif" font-weight="600">#2 fast_math::clamp</text>
<text x="28" y="186" fill="#94a3b8" font-size="11" font-family="Arial, sans-serif">ranked 0.000070 ms</text>
<rect x="260" y="154" width="16.0" height="14" fill="#ef4444" rx="6" />
<rect x="260" y="176" width="16.0" height="14" fill="#22c55e" rx="6" />
<text x="292.0" y="166" fill="#fecaca" font-size="12" font-family="Arial, sans-serif">0.0000720809 ms</text>
<text x="292.0" y="188" fill="#bbf7d0" font-size="12" font-family="Arial, sans-serif">0.0000720809 ms</text>
<text x="28" y="228" fill="#e2e8f0" font-size="14" font-family="Arial, sans-serif" font-weight="600">#3 slow_math::slow_sum</text>
<text x="28" y="246" fill="#94a3b8" font-size="11" font-family="Arial, sans-serif">ranked 0.000105 ms</text>
<rect x="260" y="214" width="16.0" height="14" fill="#ef4444" rx="6" />
<rect x="260" y="236" width="16.0" height="14" fill="#22c55e" rx="6" />
<text x="292.0" y="226" fill="#fecaca" font-size="12" font-family="Arial, sans-serif">0.0001058349 ms</text>
<text x="292.0" y="248" fill="#bbf7d0" font-size="12" font-family="Arial, sans-serif">0.0000964600 ms</text>
</svg>